<svg id="visual" viewBox="0 0 900 600" width="900" height="600" xmlns="http://www.w3.org/2000/svg" xmlns:xlink="http://www.w3.org/1999/xlink" version="1.1"><rect x="0" y="0" width="900" height="600" fill="#99a0f5"></rect><path d="M0 441L21.5 427.7C43 414.3 86 387.7 128.8 385C171.7 382.3 214.3 403.7 257.2 417C300 430.3 343 435.7 385.8 430.5C428.7 425.3 471.3 409.7 514.2 407.7C557 405.7 600 417.3 642.8 411.3C685.7 405.3 728.3 381.7 771.2 378C814 374.3 857 390.7 878.5 398.8L900 407L900 601L878.5 601C857 601 814 601 771.2 601C728.3 601 685.7 601 642.8 601C600 601 557 601 514.2 601C471.3 601 428.7 601 385.8 601C343 601 300 601 257.2 601C214.3 601 171.7 601 128.8 601C86 601 43 601 21.5 601L0 601Z" fill="#3341eb"></path><path d="M0 463L21.5 462C43 461 86 459 128.8 454.3C171.7 449.7 214.3 442.3 257.2 436.5C300 430.7 343 426.3 385.8 432.2C428.7 438 471.3 454 514.2 460.3C557 466.7 600 463.3 642.8 453C685.7 442.7 728.3 425.3 771.2 417.5C814 409.7 857 411.3 878.5 412.2L900 413L900 601L878.5 601C857 601 814 601 771.2 601C728.3 601 685.7 601 642.8 601C600 601 557 601 514.2 601C471.3 601 428.7 601 385.8 601C343 601 300 601 257.2 601C214.3 601 171.7 601 128.8 601C86 601 43 601 21.5 601L0 601Z" fill="#2a36de"></path><path d="M0 496L21.5 488.5C43 481 86 466 128.8 462.3C171.7 458.7 214.3 466.3 257.2 466.8C300 467.3 343 460.7 385.8 461.7C428.7 462.7 471.3 471.3 514.2 480C557 488.7 600 497.3 642.8 494.8C685.7 492.3 728.3 478.7 771.2 475.5C814 472.3 857 479.7 878.5 483.3L900 487L900 601L878.5 601C857 601 814 601 771.2 601C728.3 601 685.7 601 642.8 601C600 601 557 601 514.2 601C471.3 601 428.7 601 385.8 601C343 601 300 601 257.2 601C214.3 601 171.7 601 128.8 601C86 601 43 601 21.5 601L0 601Z" fill="#202ad1"></path><path d="M0 530L21.5 523.5C43 517 86 504 128.8 502.5C171.7 501 214.3 511 257.2 511.8C300 512.7 343 504.3 385.8 498.3C428.7 492.3 471.3 488.7 514.2 496.2C557 503.7 600 522.3 642.8 528.5C685.7 534.7 728.3 528.3 771.2 524.3C814 520.3 857 518.7 878.5 517.8L900 517L900 601L878.5 601C857 601 814 601 771.2 601C728.3 601 685.7 601 642.8 601C600 601 557 601 514.2 601C471.3 601 428.7 601 385.8 601C343 601 300 601 257.2 601C214.3 601 171.7 601 128.8 601C86 601 43 601 21.5 601L0 601Z" fill="#131dc4"></path><path d="M0 562L21.5 561.5C43 561 86 560 128.8 560.5C171.7 561 214.3 563 257.2 564.7C300 566.3 343 567.7 385.8 562.3C428.7 557 471.3 545 514.2 541.7C557 538.3 600 543.7 642.8 550.2C685.7 556.7 728.3 564.3 771.2 566.7C814 569 857 566 878.5 564.5L900 563L900 601L878.5 601C857 601 814 601 771.2 601C728.3 601 685.7 601 642.8 601C600 601 557 601 514.2 601C471.3 601 428.7 601 385.8 601C343 601 300 601 257.2 601C214.3 601 171.7 601 128.8 601C86 601 43 601 21.5 601L0 601Z" fill="#000eb8"></path></svg>