<svg id="visual" viewBox="0 0 900 600" width="900" height="600" xmlns="http://www.w3.org/2000/svg" xmlns:xlink="http://www.w3.org/1999/xlink" version="1.1"><rect x="0" y="0" width="900" height="600" fill="#0012e6"></rect><path d="M0 264L129 264L129 338L257 338L257 266L386 266L386 249L514 249L514 321L643 321L643 248L771 248L771 314L900 314L900 338L900 601L900 601L771 601L771 601L643 601L643 601L514 601L514 601L386 601L386 601L257 601L257 601L129 601L129 601L0 601Z" fill="#3343ff"></path><path d="M0 355L129 355L129 407L257 407L257 379L386 379L386 447L514 447L514 393L643 393L643 422L771 422L771 356L900 356L900 434L900 601L900 601L771 601L771 601L643 601L643 601L514 601L514 601L386 601L386 601L257 601L257 601L129 601L129 601L0 601Z" fill="#2028cb"></path><path d="M0 455L129 455L129 443L257 443L257 544L386 544L386 512L514 512L514 454L643 454L643 510L771 510L771 491L900 491L900 466L900 601L900 601L771 601L771 601L643 601L643 601L514 601L514 601L386 601L386 601L257 601L257 601L129 601L129 601L0 601Z" fill="#000c99"></path></svg>