<svg id="visual" viewBox="0 0 900 600" width="900" height="600" xmlns="http://www.w3.org/2000/svg" xmlns:xlink="http://www.w3.org/1999/xlink" version="1.1"><rect x="0" y="0" width="900" height="600" fill="#ff4d4d"></rect><path d="M0 440L21.5 426C43 412 86 384 128.8 380C171.7 376 214.3 396 257.2 396.7C300 397.3 343 378.7 385.8 371.5C428.7 364.3 471.3 368.7 514.2 367.5C557 366.3 600 359.7 642.8 365C685.7 370.3 728.3 387.7 771.2 398.2C814 408.7 857 412.3 878.5 414.2L900 416L900 601L878.5 601C857 601 814 601 771.2 601C728.3 601 685.7 601 642.8 601C600 601 557 601 514.2 601C471.3 601 428.7 601 385.8 601C343 601 300 601 257.2 601C214.3 601 171.7 601 128.8 601C86 601 43 601 21.5 601L0 601Z" fill="#ff9999"></path><path d="M0 441L21.5 439.7C43 438.3 86 435.7 128.8 432.2C171.7 428.7 214.3 424.3 257.2 431C300 437.7 343 455.3 385.8 459.8C428.7 464.3 471.3 455.7 514.2 446.8C557 438 600 429 642.8 421.3C685.7 413.7 728.3 407.3 771.2 404.2C814 401 857 401 878.5 401L900 401L900 601L878.5 601C857 601 814 601 771.2 601C728.3 601 685.7 601 642.8 601C600 601 557 601 514.2 601C471.3 601 428.7 601 385.8 601C343 601 300 601 257.2 601C214.3 601 171.7 601 128.8 601C86 601 43 601 21.5 601L0 601Z" fill="#ffa6a6"></path><path d="M0 456L21.5 454.2C43 452.3 86 448.7 128.8 447.5C171.7 446.3 214.3 447.7 257.2 452.3C300 457 343 465 385.8 471.3C428.7 477.7 471.3 482.3 514.2 478.7C557 475 600 463 642.8 467C685.7 471 728.3 491 771.2 500.5C814 510 857 509 878.5 508.5L900 508L900 601L878.5 601C857 601 814 601 771.2 601C728.3 601 685.7 601 642.8 601C600 601 557 601 514.2 601C471.3 601 428.7 601 385.8 601C343 601 300 601 257.2 601C214.3 601 171.7 601 128.8 601C86 601 43 601 21.5 601L0 601Z" fill="#ffb3b3"></path><path d="M0 516L21.5 518.8C43 521.7 86 527.3 128.8 522C171.7 516.7 214.3 500.3 257.2 502C300 503.7 343 523.3 385.8 528.7C428.7 534 471.3 525 514.2 518C557 511 600 506 642.8 501.2C685.7 496.3 728.3 491.7 771.2 496.2C814 500.7 857 514.3 878.5 521.2L900 528L900 601L878.5 601C857 601 814 601 771.2 601C728.3 601 685.7 601 642.8 601C600 601 557 601 514.2 601C471.3 601 428.7 601 385.8 601C343 601 300 601 257.2 601C214.3 601 171.7 601 128.8 601C86 601 43 601 21.5 601L0 601Z" fill="#ffc0c0"></path><path d="M0 550L21.5 553.8C43 557.7 86 565.3 128.8 567.7C171.7 570 214.3 567 257.2 565.8C300 564.7 343 565.3 385.8 566.3C428.7 567.3 471.3 568.7 514.2 566.3C557 564 600 558 642.8 555C685.7 552 728.3 552 771.2 551.5C814 551 857 550 878.5 549.5L900 549L900 601L878.5 601C857 601 814 601 771.2 601C728.3 601 685.7 601 642.8 601C600 601 557 601 514.2 601C471.3 601 428.7 601 385.8 601C343 601 300 601 257.2 601C214.3 601 171.7 601 128.8 601C86 601 43 601 21.5 601L0 601Z" fill="#ffcccc"></path></svg>