<svg id="visual" viewBox="0 0 900 600" width="900" height="600" xmlns="http://www.w3.org/2000/svg" xmlns:xlink="http://www.w3.org/1999/xlink" version="1.1"><rect x="0" y="0" width="900" height="600" fill="#0012e6"></rect><path d="M0 475L129 475L129 486L257 486L257 406L386 406L386 419L514 419L514 469L643 469L643 404L771 404L771 487L900 487L900 435L900 601L900 601L771 601L771 601L643 601L643 601L514 601L514 601L386 601L386 601L257 601L257 601L129 601L129 601L0 601Z" fill="#000c99" stroke-linecap="square" stroke-linejoin="miter"></path></svg>